# xmcd
#
# Track frame offsets: 
#        150
#        24192
#        41984
#        52258
#        77417
#        99681
#        113928
#        130264
#        147657
#        161698
#        174096
#        208270
#        236781
#
# Disc length: 3456 seconds
#
# Revision: 0
# Processed by: cddbd v1.5.2PL0 Copyright (c) Steve Scherf et al.
# Submitted via: ExactAudioCopyFreeDBPlugin 1.0
#
DISCID=ba0d7e0d
DTITLE=Flávio Guimarães - Flávio Guimarães and Friends
DYEAR=2012
DGENRE=Blues
TTITLE0=Blues Before Sunrise
TTITLE1=Washboard Shuffle
TTITLE2=Gospel Trail
TTITLE3=Santa Teresa's Boogie
TTITLE4=C. C. Rider
TTITLE5=Madcat's Yodel Blues
TTITLE6=Muddy's Ukulele
TTITLE7=Jamming With The Nightgats
TTITLE8=Gary's Swing
TTITLE9=Joe's Reggae
TTITLE10=Blues For Rio
TTITLE11=Harp Talk
TTITLE12=Good Times With Charlie
EXTD=
EXTT0=
EXTT1=
EXTT2=
EXTT3=
EXTT4=
EXTT5=
EXTT6=
EXTT7=
EXTT8=
EXTT9=
EXTT10=
EXTT11=
EXTT12=
PLAYORDER=
